<svg width="16" height="20" viewBox="0 0 16 20" fill="none" xmlns="http://www.w3.org/2000/svg">
<path d="M15.4688 8.76049C15.3958 8.55413 15.2088 8.41691 14.9998 8.41691H8.96236L12.4448 1.26974C12.5543 1.04491 12.4978 0.769939 12.3093 0.613716C12.2183 0.537716 12.1088 0.500244 11.9998 0.500244C11.8833 0.500244 11.7668 0.543522 11.6733 0.628494L7.99987 3.97724L0.673417 10.6563C0.515418 10.8004 0.458419 11.0331 0.531418 11.2395C0.604418 11.4458 0.790916 11.5836 0.999915 11.5836H7.03737L3.5549 18.7307C3.4454 18.9556 3.5019 19.2306 3.6904 19.3868C3.7814 19.4628 3.89089 19.5002 3.99989 19.5002C4.11639 19.5002 4.23289 19.457 4.32639 19.372L7.99987 16.0232L15.3263 9.34422C15.4848 9.20013 15.5413 8.96738 15.4688 8.76049Z" fill="#F1AB40"/>
</svg>
